<svg width="50" height="50" viewBox="0 0 50 50" fill="none" xmlns="http://www.w3.org/2000/svg">
<rect width="50" height="50" rx="10" fill="#6D90D0"/>
<path d="M25 18.75C25.6904 18.75 26.25 18.1904 26.25 17.5C26.25 16.8096 25.6904 16.25 25 16.25C24.3096 16.25 23.75 16.8096 23.75 17.5C23.75 18.1904 24.3096 18.75 25 18.75Z" fill="white"/>
<path d="M17.5 31.25H32.5V33.75H17.5V31.25ZM22.5 24.7875L25.99 28.28L30.905 23.3613L32.5 25V20H27.5L29.1375 21.5937L25.9888 24.7425L22.5 21.25L17.5 26.25L19.2675 28.0175L22.5 24.7875Z" fill="white"/>
<path d="M33.75 13.75H29.6275C29.5037 13.5659 29.3702 13.3886 29.2275 13.2187L29.215 13.2037C28.2963 12.1345 27.0043 11.4558 25.6025 11.3062C25.2043 11.2311 24.7957 11.2311 24.3975 11.3062C22.9957 11.4558 21.7037 12.1345 20.785 13.2037L20.7725 13.2187C20.6299 13.3882 20.4963 13.5651 20.3725 13.7487V13.75H16.25C15.2557 13.751 14.3025 14.1464 13.5994 14.8494C12.8964 15.5525 12.501 16.5057 12.5 17.5V35C12.501 35.9943 12.8964 36.9475 13.5994 37.6506C14.3025 38.3536 15.2557 38.749 16.25 38.75H33.75C34.7443 38.749 35.6975 38.3536 36.4006 37.6506C37.1036 36.9475 37.499 35.9943 37.5 35V17.5C37.499 16.5057 37.1036 15.5525 36.4006 14.8494C35.6975 14.1464 34.7443 13.751 33.75 13.75ZM35 35C35 35.3315 34.8683 35.6495 34.6339 35.8839C34.3995 36.1183 34.0815 36.25 33.75 36.25H16.25C15.9185 36.25 15.6005 36.1183 15.3661 35.8839C15.1317 35.6495 15 35.3315 15 35V17.5C15 17.1685 15.1317 16.8505 15.3661 16.6161C15.6005 16.3817 15.9185 16.25 16.25 16.25H21.9375C22.0809 15.5436 22.4642 14.9084 23.0223 14.4523C23.5805 13.9961 24.2792 13.7469 25 13.7469C25.7208 13.7469 26.4195 13.9961 26.9777 14.4523C27.5358 14.9084 27.9191 15.5436 28.0625 16.25H33.75C34.0815 16.25 34.3995 16.3817 34.6339 16.6161C34.8683 16.8505 35 17.1685 35 17.5V35Z" fill="white"/>
</svg>
