<svg width="60" height="60" viewBox="0 0 60 60" fill="none" xmlns="http://www.w3.org/2000/svg">
<path d="M32.1897 0.637018C32.4054 0.427242 32.6611 0.262861 32.9414 0.153598C33.2218 0.0443359 33.5212 -0.00758921 33.822 0.00089468C40.6988 0.208738 47.237 3.03339 52.1018 7.89822C56.9666 12.763 59.7913 19.3012 59.9991 26.178C60.0079 26.479 59.9563 26.7788 59.8471 27.0595C59.738 27.3402 59.5736 27.5961 59.3638 27.8121C59.1539 28.0281 58.9028 28.1998 58.6254 28.317C58.348 28.4342 58.0498 28.4945 57.7487 28.4944H33.756C33.1592 28.4944 32.5868 28.2573 32.1647 27.8353C31.7427 27.4132 31.5056 26.8408 31.5056 26.244V2.25133C31.5058 1.95016 31.5665 1.6521 31.684 1.37481C31.8015 1.09752 31.9735 0.846631 32.1897 0.637018ZM27.0047 8.34251C27.0047 8.03003 26.9396 7.72098 26.8136 7.43503C26.6876 7.14909 26.5034 6.89251 26.2728 6.68166C26.0422 6.4708 25.7702 6.31028 25.4742 6.21033C25.1781 6.11037 24.8645 6.07316 24.5532 6.10108C19.4422 6.56707 14.5699 8.4798 10.5068 11.6152C6.44375 14.7507 3.35827 18.979 1.61178 23.8048C-0.134715 28.6307 -0.469897 33.8543 0.64549 38.8639C1.76088 43.8734 4.28065 48.4613 7.90965 52.0903C11.5387 55.7193 16.1266 58.2391 21.1361 59.3545C26.1457 60.4699 31.3693 60.1347 36.1952 58.3882C41.021 56.6417 45.2493 53.5562 48.3848 49.4932C51.5202 45.4301 53.4329 40.5578 53.8989 35.4468C53.9268 35.1355 53.8896 34.8219 53.7897 34.5258C53.6897 34.2298 53.5292 33.9578 53.3183 33.7272C53.1075 33.4966 52.8509 33.3124 52.565 33.1864C52.279 33.0604 51.97 32.9953 51.6575 32.9953H27.0047V8.34251Z" fill="#373737"/>
</svg>
