<svg width="24" height="26" viewBox="0 0 24 26" fill="none" xmlns="http://www.w3.org/2000/svg">
<path fill-rule="evenodd" clip-rule="evenodd" d="M3.02656 9.71152C3.02656 7.26848 3.99706 4.92549 5.72456 3.19799C7.45205 1.4705 9.79504 0.5 12.2381 0.5C14.6811 0.5 17.0241 1.4705 18.7516 3.19799C20.4791 4.92549 21.4496 7.26848 21.4496 9.71152V14.6647L23.8472 19.4599C23.9576 19.6807 24.0097 19.9259 23.9986 20.1724C23.9876 20.4189 23.9136 20.6585 23.7839 20.8684C23.6541 21.0784 23.4729 21.2516 23.2574 21.3718C23.0418 21.4919 22.7991 21.5549 22.5524 21.5549H17.336C17.0433 22.6843 16.3838 23.6845 15.4612 24.3985C14.5385 25.1126 13.4048 25.5 12.2381 25.5C11.0714 25.5 9.93771 25.1126 9.01503 24.3985C8.09234 23.6845 7.43288 22.6843 7.14017 21.5549H1.92381C1.67705 21.5549 1.43437 21.4919 1.21883 21.3718C1.00328 21.2516 0.822034 21.0784 0.692292 20.8684C0.562551 20.6585 0.488625 20.4189 0.477537 20.1724C0.466448 19.9259 0.518565 19.6807 0.628937 19.4599L3.02656 14.6647V9.71152ZM9.95889 21.5549C10.1899 21.955 10.5221 22.2872 10.9222 22.5182C11.3223 22.7491 11.7761 22.8707 12.2381 22.8707C12.7001 22.8707 13.1539 22.7491 13.554 22.5182C13.954 22.2872 14.2863 21.955 14.5173 21.5549H9.95889ZM12.2381 3.13186C10.4931 3.13186 8.81949 3.82508 7.58557 5.059C6.35164 6.29293 5.65843 7.96649 5.65843 9.71152V14.6647C5.6584 15.0731 5.56334 15.4758 5.38077 15.8411L3.84113 18.923H20.6364L19.0967 15.8411C18.9137 15.4759 18.8182 15.0732 18.8177 14.6647V9.71152C18.8177 7.96649 18.1245 6.29293 16.8906 5.059C15.6567 3.82508 13.9831 3.13186 12.2381 3.13186Z" fill="#373737"/>
</svg>
