<svg width="50" height="50" viewBox="0 0 50 50" fill="none" xmlns="http://www.w3.org/2000/svg">
<rect width="50" height="50" rx="10" fill="#6D90D0"/>
<path d="M28.4425 22.5C29.65 22.5 30.63 23.48 30.63 24.6875V30.6238C30.63 32.1159 30.0372 33.547 28.9821 34.6021C27.927 35.6572 26.4959 36.25 25.0037 36.25C23.5116 36.25 22.0805 35.6572 21.0254 34.6021C19.9703 33.547 19.3775 32.1159 19.3775 30.6238V24.6875C19.3775 23.48 20.3562 22.5 21.565 22.5H28.4425ZM28.4425 24.375H21.565C21.4821 24.375 21.4026 24.4079 21.344 24.4665C21.2854 24.5251 21.2525 24.6046 21.2525 24.6875V30.6238C21.2525 31.6186 21.6477 32.5728 22.3512 33.2763C23.0547 33.9798 24.0089 34.375 25.0037 34.375C25.9986 34.375 26.9528 33.9798 27.6563 33.2763C28.3598 32.5728 28.755 31.6186 28.755 30.6238V24.6875C28.755 24.6046 28.7221 24.5251 28.6635 24.4665C28.6049 24.4079 28.5254 24.375 28.4425 24.375ZM14.6875 22.5H18.9138C18.4729 23.0327 18.2036 23.6863 18.1413 24.375H14.6875C14.6046 24.375 14.5251 24.4079 14.4665 24.4665C14.4079 24.5251 14.375 24.6046 14.375 24.6875V28.7487C14.3747 29.2212 14.4815 29.6875 14.6874 30.1127C14.8933 30.538 15.1929 30.911 15.5637 31.2037C15.9345 31.4964 16.3669 31.7013 16.8282 31.8028C17.2896 31.9044 17.768 31.9 18.2275 31.79C18.3337 32.42 18.5275 33.0212 18.7937 33.58C18.3804 33.6925 17.9492 33.7492 17.5 33.75C16.8433 33.75 16.193 33.6206 15.5863 33.3693C14.9796 33.1179 14.4283 32.7495 13.964 32.2851C13.4997 31.8207 13.1314 31.2693 12.8802 30.6626C12.629 30.0558 12.4998 29.4055 12.5 28.7487V24.6875C12.5 23.48 13.48 22.5 14.6875 22.5ZM31.0938 22.5H35.3125C36.52 22.5 37.5 23.48 37.5 24.6875V28.75C37.5002 29.5165 37.3241 30.2727 36.9855 30.9603C36.6468 31.6479 36.1547 32.2484 35.547 32.7155C34.9393 33.1825 34.2323 33.5036 33.4807 33.654C32.7292 33.8043 31.9531 33.7799 31.2125 33.5825C31.48 33.0225 31.6737 32.4213 31.7812 31.7913C32.0121 31.8463 32.2517 31.8742 32.5 31.875C33.3288 31.875 34.1237 31.5458 34.7097 30.9597C35.2958 30.3737 35.625 29.5788 35.625 28.75V24.6875C35.625 24.6046 35.5921 24.5251 35.5335 24.4665C35.4749 24.4079 35.3954 24.375 35.3125 24.375H31.8662C31.8039 23.6863 31.5346 23.0327 31.0938 22.5ZM25 13.75C25.9946 13.75 26.9484 14.1451 27.6517 14.8483C28.3549 15.5516 28.75 16.5054 28.75 17.5C28.75 18.4946 28.3549 19.4484 27.6517 20.1517C26.9484 20.8549 25.9946 21.25 25 21.25C24.0054 21.25 23.0516 20.8549 22.3483 20.1517C21.6451 19.4484 21.25 18.4946 21.25 17.5C21.25 16.5054 21.6451 15.5516 22.3483 14.8483C23.0516 14.1451 24.0054 13.75 25 13.75ZM33.125 15C33.9538 15 34.7487 15.3292 35.3347 15.9153C35.9208 16.5013 36.25 17.2962 36.25 18.125C36.25 18.9538 35.9208 19.7487 35.3347 20.3347C34.7487 20.9208 33.9538 21.25 33.125 21.25C32.2962 21.25 31.5013 20.9208 30.9153 20.3347C30.3292 19.7487 30 18.9538 30 18.125C30 17.2962 30.3292 16.5013 30.9153 15.9153C31.5013 15.3292 32.2962 15 33.125 15ZM16.875 15C17.7038 15 18.4987 15.3292 19.0847 15.9153C19.6708 16.5013 20 17.2962 20 18.125C20 18.9538 19.6708 19.7487 19.0847 20.3347C18.4987 20.9208 17.7038 21.25 16.875 21.25C16.0462 21.25 15.2513 20.9208 14.6653 20.3347C14.0792 19.7487 13.75 18.9538 13.75 18.125C13.75 17.2962 14.0792 16.5013 14.6653 15.9153C15.2513 15.3292 16.0462 15 16.875 15ZM25 15.625C24.5027 15.625 24.0258 15.8225 23.6742 16.1742C23.3225 16.5258 23.125 17.0027 23.125 17.5C23.125 17.9973 23.3225 18.4742 23.6742 18.8258C24.0258 19.1775 24.5027 19.375 25 19.375C25.4973 19.375 25.9742 19.1775 26.3258 18.8258C26.6775 18.4742 26.875 17.9973 26.875 17.5C26.875 17.0027 26.6775 16.5258 26.3258 16.1742C25.9742 15.8225 25.4973 15.625 25 15.625ZM33.125 16.875C32.7935 16.875 32.4755 17.0067 32.2411 17.2411C32.0067 17.4755 31.875 17.7935 31.875 18.125C31.875 18.4565 32.0067 18.7745 32.2411 19.0089C32.4755 19.2433 32.7935 19.375 33.125 19.375C33.4565 19.375 33.7745 19.2433 34.0089 19.0089C34.2433 18.7745 34.375 18.4565 34.375 18.125C34.375 17.7935 34.2433 17.4755 34.0089 17.2411C33.7745 17.0067 33.4565 16.875 33.125 16.875ZM16.875 16.875C16.5435 16.875 16.2255 17.0067 15.9911 17.2411C15.7567 17.4755 15.625 17.7935 15.625 18.125C15.625 18.4565 15.7567 18.7745 15.9911 19.0089C16.2255 19.2433 16.5435 19.375 16.875 19.375C17.2065 19.375 17.5245 19.2433 17.7589 19.0089C17.9933 18.7745 18.125 18.4565 18.125 18.125C18.125 17.7935 17.9933 17.4755 17.7589 17.2411C17.5245 17.0067 17.2065 16.875 16.875 16.875Z" fill="white"/>
</svg>
