<svg width="60" height="60" viewBox="0 0 60 60" fill="none" xmlns="http://www.w3.org/2000/svg">
<path d="M53.5714 0H6.42857C2.87946 0 0 2.87946 0 6.42857V53.5714C0 57.1205 2.87946 60 6.42857 60H53.5714C57.1205 60 60 57.1205 60 53.5714V6.42857C60 2.87946 57.1205 0 53.5714 0ZM32.1429 38.5714H25.7143V45C25.7143 46.1786 24.75 47.1429 23.5714 47.1429H19.2857C18.1071 47.1429 17.1429 46.1786 17.1429 45V15C17.1429 13.8214 18.1071 12.8571 19.2857 12.8571H32.1429C39.2277 12.8571 45 18.6295 45 25.7143C45 32.7991 39.2277 38.5714 32.1429 38.5714ZM32.1429 21.4286H25.7143V30H32.1429C34.5 30 36.4286 28.0714 36.4286 25.7143C36.4286 23.3571 34.5 21.4286 32.1429 21.4286Z" fill="white"/>
</svg>
