<svg width="60" height="60" viewBox="0 0 60 60" fill="none" xmlns="http://www.w3.org/2000/svg">
<path d="M3.33333 33.3333H23.3333C25.1667 33.3333 26.6667 31.8333 26.6667 30V3.33333C26.6667 1.5 25.1667 0 23.3333 0H3.33333C1.5 0 0 1.5 0 3.33333V30C0 31.8333 1.5 33.3333 3.33333 33.3333ZM3.33333 60H23.3333C25.1667 60 26.6667 58.5 26.6667 56.6667V43.3333C26.6667 41.5 25.1667 40 23.3333 40H3.33333C1.5 40 0 41.5 0 43.3333V56.6667C0 58.5 1.5 60 3.33333 60ZM36.6667 60H56.6667C58.5 60 60 58.5 60 56.6667V30C60 28.1667 58.5 26.6667 56.6667 26.6667H36.6667C34.8333 26.6667 33.3333 28.1667 33.3333 30V56.6667C33.3333 58.5 34.8333 60 36.6667 60ZM33.3333 3.33333V16.6667C33.3333 18.5 34.8333 20 36.6667 20H56.6667C58.5 20 60 18.5 60 16.6667V3.33333C60 1.5 58.5 0 56.6667 0H36.6667C34.8333 0 33.3333 1.5 33.3333 3.33333Z" fill="#373737"/>
</svg>
