<svg width="26" height="26" viewBox="0 0 26 26" fill="none" xmlns="http://www.w3.org/2000/svg">
<path d="M23.4695 13.8249C23.2691 13.5968 23.1586 13.3036 23.1586 13C23.1586 12.6964 23.2691 12.4032 23.4695 12.1751L25.0692 10.3754C25.2455 10.1787 25.355 9.9313 25.3819 9.66859C25.4089 9.40588 25.3519 9.14138 25.2192 8.91306L22.7196 4.58864C22.5882 4.36058 22.3882 4.1798 22.1481 4.07207C21.9079 3.96435 21.6399 3.93518 21.3822 3.98873L19.0326 4.46366C18.7336 4.52544 18.4223 4.47565 18.1575 4.32368C17.8928 4.17171 17.6927 3.92809 17.5953 3.63877L16.8329 1.35158C16.749 1.10334 16.5893 0.887728 16.3762 0.73522C16.1631 0.582712 15.9075 0.501023 15.6455 0.5017H10.6462C10.3737 0.487474 10.1039 0.562849 9.87826 0.716313C9.65258 0.869777 9.48334 1.09289 9.39637 1.35158L8.69647 3.63877C8.59898 3.92809 8.39897 4.17171 8.13419 4.32368C7.8694 4.47565 7.55815 4.52544 7.25916 4.46366L4.84699 3.98873C4.60271 3.95421 4.35368 3.99275 4.13127 4.09951C3.90886 4.20627 3.72302 4.37646 3.59716 4.58864L1.0975 8.91306C0.961471 9.13884 0.900307 9.40185 0.922754 9.66448C0.945202 9.92712 1.05011 10.1759 1.22249 10.3754L2.80977 12.1751C3.01014 12.4032 3.12065 12.6964 3.12065 13C3.12065 13.3036 3.01014 13.5968 2.80977 13.8249L1.22249 15.6246C1.05011 15.8241 0.945202 16.0729 0.922754 16.3355C0.900307 16.5982 0.961471 16.8612 1.0975 17.0869L3.59716 21.4114C3.72852 21.6394 3.92852 21.8202 4.16865 21.9279C4.40878 22.0357 4.6768 22.0648 4.93448 22.0113L7.28416 21.5363C7.58314 21.4746 7.8944 21.5244 8.15918 21.6763C8.42397 21.8283 8.62398 22.0719 8.72147 22.3612L9.48386 24.6484C9.57082 24.9071 9.74007 25.1302 9.96575 25.2837C10.1914 25.4371 10.4611 25.5125 10.7337 25.4983H15.733C15.995 25.499 16.2506 25.4173 16.4637 25.2648C16.6768 25.1123 16.8365 24.8967 16.9204 24.6484L17.6827 22.3612C17.7802 22.0719 17.9802 21.8283 18.245 21.6763C18.5098 21.5244 18.8211 21.4746 19.1201 21.5363L21.4697 22.0113C21.7274 22.0648 21.9954 22.0357 22.2356 21.9279C22.4757 21.8202 22.6757 21.6394 22.8071 21.4114L25.3067 17.0869C25.4394 16.8586 25.4964 16.5941 25.4694 16.3314C25.4425 16.0687 25.333 15.8213 25.1567 15.6246L23.4695 13.8249ZM21.6072 15.4997L22.6071 16.6245L21.0073 19.3991L19.5325 19.0992C18.6323 18.9152 17.696 19.0681 16.9011 19.5289C16.1062 19.9897 15.5082 20.7262 15.2206 21.5988L14.7456 22.9986H11.5461L11.0961 21.5738C10.8085 20.7013 10.2105 19.9647 9.41563 19.5039C8.62077 19.0431 7.68438 18.8902 6.78423 19.0742L5.30943 19.3741L3.68465 16.612L4.68451 15.4872C5.29937 14.7997 5.6393 13.9098 5.6393 12.9875C5.6393 12.0652 5.29937 11.1753 4.68451 10.4878L3.68465 9.36299L5.28443 6.61337L6.75923 6.91333C7.65939 7.09733 8.59577 6.94442 9.39063 6.48363C10.1855 6.02284 10.7835 5.28625 11.0711 4.41367L11.5461 3.00136H14.7456L15.2206 4.42617C15.5082 5.29875 16.1062 6.03534 16.9011 6.49613C17.696 6.95692 18.6323 7.10983 19.5325 6.92583L21.0073 6.62587L22.6071 9.40049L21.6072 10.5253C20.9993 11.2112 20.6636 12.096 20.6636 13.0125C20.6636 13.929 20.9993 14.8138 21.6072 15.4997ZM13.1459 8.00068C12.1571 8.00068 11.1905 8.29389 10.3684 8.84322C9.54626 9.39255 8.90548 10.1733 8.52709 11.0868C8.14871 12.0003 8.0497 13.0055 8.2426 13.9753C8.4355 14.9451 8.91164 15.8359 9.61081 16.5351C10.31 17.2342 11.2008 17.7104 12.1705 17.9033C13.1403 18.0962 14.1455 17.9972 15.059 17.6188C15.9725 17.2404 16.7533 16.5996 17.3026 15.7775C17.852 14.9553 18.1452 13.9888 18.1452 13C18.1452 11.6741 17.6185 10.4025 16.6809 9.46495C15.7434 8.52739 14.4718 8.00068 13.1459 8.00068ZM13.1459 15.4997C12.6515 15.4997 12.1682 15.3531 11.7571 15.0784C11.3461 14.8037 11.0257 14.4133 10.8365 13.9566C10.6473 13.4998 10.5978 12.9972 10.6942 12.5123C10.7907 12.0275 11.0288 11.5821 11.3783 11.2325C11.7279 10.8829 12.1733 10.6448 12.6582 10.5484C13.1431 10.4519 13.6457 10.5014 14.1024 10.6906C14.5592 10.8798 14.9496 11.2002 15.2243 11.6113C15.4989 12.0223 15.6455 12.5056 15.6455 13C15.6455 13.663 15.3822 14.2987 14.9134 14.7675C14.4446 15.2363 13.8088 15.4997 13.1459 15.4997Z" fill="#373737"/>
</svg>
