<svg width="70" height="60" viewBox="0 0 70 60" fill="none" xmlns="http://www.w3.org/2000/svg">
<path fill-rule="evenodd" clip-rule="evenodd" d="M5.00056 0C3.86392 0 2.77383 0.451529 1.9701 1.25526C1.16637 2.05898 0.714844 3.14907 0.714844 4.28571V55.7143C0.714844 56.8509 1.16637 57.941 1.9701 58.7447C2.77383 59.5485 3.86392 60 5.00056 60C6.1372 60 7.22729 59.5485 8.03102 58.7447C8.83474 57.941 9.28627 56.8509 9.28627 55.7143V4.28571C9.28627 3.14907 8.83474 2.05898 8.03102 1.25526C7.22729 0.451529 6.1372 0 5.00056 0ZM49.1134 39.8271C48.3327 40.6354 47.9008 41.718 47.9105 42.8417C47.9203 43.9654 48.371 45.0403 49.1656 45.8349C49.9602 46.6295 51.0351 47.0803 52.1588 47.09C53.2825 47.0998 54.3651 46.6678 55.1734 45.8871L68.0306 33.03C68.834 32.2263 69.2854 31.1364 69.2854 30C69.2854 28.8636 68.834 27.7737 68.0306 26.97L55.1734 14.1129C54.7781 13.7035 54.3052 13.377 53.7823 13.1524C53.2594 12.9278 52.697 12.8096 52.128 12.8046C51.5589 12.7997 50.9946 12.9081 50.4679 13.1236C49.9412 13.3391 49.4627 13.6573 49.0603 14.0597C48.6579 14.4621 48.3397 14.9406 48.1242 15.4673C47.9087 15.994 47.8003 16.5584 47.8052 17.1274C47.8101 17.6965 47.9284 18.2589 48.153 18.7817C48.3776 19.3046 48.7041 19.7775 49.1134 20.1729L54.6548 25.7143H22.1434C21.0068 25.7143 19.9167 26.1658 19.113 26.9695C18.3092 27.7733 17.8577 28.8634 17.8577 30C17.8577 31.1366 18.3092 32.2267 19.113 33.0305C19.9167 33.8342 21.0068 34.2857 22.1434 34.2857H54.6548L49.1134 39.8271Z" fill="white"/>
</svg>
