<svg width="355" height="328" viewBox="0 0 355 328" fill="none" xmlns="http://www.w3.org/2000/svg">
<path d="M83.5714 22.5H36.4286C32.8795 22.5 30 25.3795 30 28.9286V76.0714C30 79.6205 32.8795 82.5 36.4286 82.5H83.5714C87.1205 82.5 90 79.6205 90 76.0714V28.9286C90 25.3795 87.1205 22.5 83.5714 22.5ZM62.1429 61.0714H55.7143V67.5C55.7143 68.6786 54.75 69.6429 53.5714 69.6429H49.2857C48.1071 69.6429 47.1429 68.6786 47.1429 67.5V37.5C47.1429 36.3214 48.1071 35.3571 49.2857 35.3571H62.1429C69.2277 35.3571 75 41.1295 75 48.2143C75 55.2991 69.2277 61.0714 62.1429 61.0714ZM62.1429 43.9286H55.7143V52.5H62.1429C64.5 52.5 66.4286 50.5714 66.4286 48.2143C66.4286 45.8571 64.5 43.9286 62.1429 43.9286Z" fill="white"/>
<path d="M164.27 42.84C164.27 45.3133 163.687 47.6467 162.52 49.84C161.353 52.0333 159.487 53.83 156.92 55.23C154.353 56.5833 151.063 57.26 147.05 57.26H138.23V77H130.25V28.35H147.05C150.783 28.35 153.933 29.0033 156.5 30.31C159.113 31.57 161.05 33.2967 162.31 35.49C163.617 37.6833 164.27 40.1333 164.27 42.84ZM147.05 50.75C150.083 50.75 152.347 50.0733 153.84 48.72C155.333 47.32 156.08 45.36 156.08 42.84C156.08 37.52 153.07 34.86 147.05 34.86H138.23V50.75H147.05ZM169.221 57.54C169.221 53.6667 170.014 50.2367 171.601 47.25C173.234 44.2633 175.428 41.9533 178.181 40.32C180.981 38.64 184.061 37.8 187.421 37.8C190.454 37.8 193.091 38.4067 195.331 39.62C197.618 40.7867 199.438 42.2567 200.791 44.03V38.43H208.841V77H200.791V71.26C199.438 73.08 197.594 74.5967 195.261 75.81C192.928 77.0233 190.268 77.63 187.281 77.63C183.968 77.63 180.934 76.79 178.181 75.11C175.428 73.3833 173.234 71.0033 171.601 67.97C170.014 64.89 169.221 61.4133 169.221 57.54ZM200.791 57.68C200.791 55.02 200.231 52.71 199.111 50.75C198.038 48.79 196.614 47.2967 194.841 46.27C193.068 45.2433 191.154 44.73 189.101 44.73C187.048 44.73 185.134 45.2433 183.361 46.27C181.588 47.25 180.141 48.72 179.021 50.68C177.948 52.5933 177.411 54.88 177.411 57.54C177.411 60.2 177.948 62.5333 179.021 64.54C180.141 66.5467 181.588 68.0867 183.361 69.16C185.181 70.1867 187.094 70.7 189.101 70.7C191.154 70.7 193.068 70.1867 194.841 69.16C196.614 68.1333 198.038 66.64 199.111 64.68C200.231 62.6733 200.791 60.34 200.791 57.68ZM227.302 44.03C228.469 42.07 230.009 40.5533 231.922 39.48C233.882 38.36 236.192 37.8 238.852 37.8V46.06H236.822C233.696 46.06 231.316 46.8533 229.682 48.44C228.096 50.0267 227.302 52.78 227.302 56.7V77H219.322V38.43H227.302V44.03ZM261.448 57.75L279.228 77H268.448L254.168 60.41V77H246.188V25.2H254.168V55.3L268.168 38.43H279.228L261.448 57.75ZM289.007 33.32C287.561 33.32 286.347 32.83 285.367 31.85C284.387 30.87 283.897 29.6567 283.897 28.21C283.897 26.7633 284.387 25.55 285.367 24.57C286.347 23.59 287.561 23.1 289.007 23.1C290.407 23.1 291.597 23.59 292.577 24.57C293.557 25.55 294.047 26.7633 294.047 28.21C294.047 29.6567 293.557 30.87 292.577 31.85C291.597 32.83 290.407 33.32 289.007 33.32ZM292.927 38.43V77H284.947V38.43H292.927ZM311.384 44.03C312.551 42.07 314.091 40.5533 316.004 39.48C317.964 38.36 320.274 37.8 322.934 37.8V46.06H320.904C317.778 46.06 315.398 46.8533 313.764 48.44C312.178 50.0267 311.384 52.78 311.384 56.7V77H303.404V38.43H311.384V44.03Z" fill="white"/>
<path d="M32.06 182L13.23 160.23V182H5.25V133.35H13.23V155.54L32.13 133.35H42.14L21 157.71L42.49 182H32.06ZM84.8969 161.77C84.8969 163.217 84.8035 164.523 84.6169 165.69H55.1469C55.3802 168.77 56.5235 171.243 58.5769 173.11C60.6302 174.977 63.1502 175.91 66.1369 175.91C70.4302 175.91 73.4635 174.113 75.2369 170.52H83.8469C82.6802 174.067 80.5569 176.983 77.4769 179.27C74.4435 181.51 70.6635 182.63 66.1369 182.63C62.4502 182.63 59.1369 181.813 56.1969 180.18C53.3035 178.5 51.0169 176.167 49.3369 173.18C47.7035 170.147 46.8869 166.647 46.8869 162.68C46.8869 158.713 47.6802 155.237 49.2669 152.25C50.9002 149.217 53.1635 146.883 56.0569 145.25C58.9969 143.617 62.3569 142.8 66.1369 142.8C69.7769 142.8 73.0202 143.593 75.8669 145.18C78.7135 146.767 80.9302 149.007 82.5169 151.9C84.1035 154.747 84.8969 158.037 84.8969 161.77ZM76.5669 159.25C76.5202 156.31 75.4702 153.953 73.4169 152.18C71.3635 150.407 68.8202 149.52 65.7869 149.52C63.0335 149.52 60.6769 150.407 58.7169 152.18C56.7569 153.907 55.5902 156.263 55.2169 159.25H76.5669ZM100.73 130.2V182H92.75V130.2H100.73ZM127.937 182.63C124.297 182.63 121.007 181.813 118.067 180.18C115.127 178.5 112.817 176.167 111.137 173.18C109.457 170.147 108.617 166.647 108.617 162.68C108.617 158.76 109.48 155.283 111.207 152.25C112.934 149.217 115.29 146.883 118.277 145.25C121.264 143.617 124.6 142.8 128.287 142.8C131.974 142.8 135.31 143.617 138.297 145.25C141.284 146.883 143.64 149.217 145.367 152.25C147.094 155.283 147.957 158.76 147.957 162.68C147.957 166.6 147.07 170.077 145.297 173.11C143.524 176.143 141.097 178.5 138.017 180.18C134.984 181.813 131.624 182.63 127.937 182.63ZM127.937 175.7C129.99 175.7 131.904 175.21 133.677 174.23C135.497 173.25 136.967 171.78 138.087 169.82C139.207 167.86 139.767 165.48 139.767 162.68C139.767 159.88 139.23 157.523 138.157 155.61C137.084 153.65 135.66 152.18 133.887 151.2C132.114 150.22 130.2 149.73 128.147 149.73C126.094 149.73 124.18 150.22 122.407 151.2C120.68 152.18 119.304 153.65 118.277 155.61C117.25 157.523 116.737 159.88 116.737 162.68C116.737 166.833 117.787 170.053 119.887 172.34C122.034 174.58 124.717 175.7 127.937 175.7ZM202.536 142.8C205.569 142.8 208.276 143.43 210.656 144.69C213.082 145.95 214.972 147.817 216.326 150.29C217.726 152.763 218.426 155.75 218.426 159.25V182H210.516V160.44C210.516 156.987 209.652 154.35 207.926 152.53C206.199 150.663 203.842 149.73 200.856 149.73C197.869 149.73 195.489 150.663 193.716 152.53C191.989 154.35 191.126 156.987 191.126 160.44V182H183.216V160.44C183.216 156.987 182.352 154.35 180.626 152.53C178.899 150.663 176.542 149.73 173.556 149.73C170.569 149.73 168.189 150.663 166.416 152.53C164.689 154.35 163.826 156.987 163.826 160.44V182H155.846V143.43H163.826V147.84C165.132 146.253 166.789 145.017 168.796 144.13C170.802 143.243 172.949 142.8 175.236 142.8C178.316 142.8 181.069 143.453 183.496 144.76C185.922 146.067 187.789 147.957 189.096 150.43C190.262 148.097 192.082 146.253 194.556 144.9C197.029 143.5 199.689 142.8 202.536 142.8ZM236.56 149.1C237.913 147.327 239.757 145.833 242.09 144.62C244.423 143.407 247.06 142.8 250 142.8C253.36 142.8 256.417 143.64 259.17 145.32C261.97 146.953 264.163 149.263 265.75 152.25C267.337 155.237 268.13 158.667 268.13 162.54C268.13 166.413 267.337 169.89 265.75 172.97C264.163 176.003 261.97 178.383 259.17 180.11C256.417 181.79 253.36 182.63 250 182.63C247.06 182.63 244.447 182.047 242.16 180.88C239.873 179.667 238.007 178.173 236.56 176.4V200.34H228.58V143.43H236.56V149.1ZM260.01 162.54C260.01 159.88 259.45 157.593 258.33 155.68C257.257 153.72 255.81 152.25 253.99 151.27C252.217 150.243 250.303 149.73 248.25 149.73C246.243 149.73 244.33 150.243 242.51 151.27C240.737 152.297 239.29 153.79 238.17 155.75C237.097 157.71 236.56 160.02 236.56 162.68C236.56 165.34 237.097 167.673 238.17 169.68C239.29 171.64 240.737 173.133 242.51 174.16C244.33 175.187 246.243 175.7 248.25 175.7C250.303 175.7 252.217 175.187 253.99 174.16C255.81 173.087 257.257 171.547 258.33 169.54C259.45 167.533 260.01 165.2 260.01 162.54ZM292.751 182.63C289.111 182.63 285.821 181.813 282.881 180.18C279.941 178.5 277.631 176.167 275.951 173.18C274.271 170.147 273.431 166.647 273.431 162.68C273.431 158.76 274.295 155.283 276.021 152.25C277.748 149.217 280.105 146.883 283.091 145.25C286.078 143.617 289.415 142.8 293.101 142.8C296.788 142.8 300.125 143.617 303.111 145.25C306.098 146.883 308.455 149.217 310.181 152.25C311.908 155.283 312.771 158.76 312.771 162.68C312.771 166.6 311.885 170.077 310.111 173.11C308.338 176.143 305.911 178.5 302.831 180.18C299.798 181.813 296.438 182.63 292.751 182.63ZM292.751 175.7C294.805 175.7 296.718 175.21 298.491 174.23C300.311 173.25 301.781 171.78 302.901 169.82C304.021 167.86 304.581 165.48 304.581 162.68C304.581 159.88 304.045 157.523 302.971 155.61C301.898 153.65 300.475 152.18 298.701 151.2C296.928 150.22 295.015 149.73 292.961 149.73C290.908 149.73 288.995 150.22 287.221 151.2C285.495 152.18 284.118 153.65 283.091 155.61C282.065 157.523 281.551 159.88 281.551 162.68C281.551 166.833 282.601 170.053 284.701 172.34C286.848 174.58 289.531 175.7 292.751 175.7ZM335.92 162.75L353.7 182H342.92L328.64 165.41V182H320.66V130.2H328.64V160.3L342.64 143.43H353.7L335.92 162.75Z" fill="white"/>
<path d="M48.034 233.412L24.44 290H7.99L31.866 235.198H2.632V221.474H48.034V233.412ZM133.205 224.012V290H117.131V262.834H92.1266V290H76.0526V224.012H92.1266V249.862H117.131V224.012H133.205ZM168.684 290.752C163.546 290.752 158.908 289.655 154.772 287.462C150.699 285.269 147.472 282.135 145.09 278.062C142.772 273.989 141.612 269.226 141.612 263.774C141.612 258.385 142.803 253.653 145.184 249.58C147.566 245.444 150.824 242.279 154.96 240.086C159.096 237.893 163.734 236.796 168.872 236.796C174.011 236.796 178.648 237.893 182.784 240.086C186.92 242.279 190.179 245.444 192.56 249.58C194.942 253.653 196.132 258.385 196.132 263.774C196.132 269.163 194.91 273.926 192.466 278.062C190.085 282.135 186.795 285.269 182.596 287.462C178.46 289.655 173.823 290.752 168.684 290.752ZM168.684 276.84C171.755 276.84 174.356 275.712 176.486 273.456C178.68 271.2 179.776 267.973 179.776 263.774C179.776 259.575 178.711 256.348 176.58 254.092C174.512 251.836 171.943 250.708 168.872 250.708C165.739 250.708 163.138 251.836 161.07 254.092C159.002 256.285 157.968 259.513 157.968 263.774C157.968 267.973 158.971 271.2 160.976 273.456C163.044 275.712 165.614 276.84 168.684 276.84ZM256.454 237.548V290H240.38V282.856C238.751 285.175 236.526 287.055 233.706 288.496C230.949 289.875 227.878 290.564 224.494 290.564C220.483 290.564 216.943 289.687 213.872 287.932C210.801 286.115 208.42 283.514 206.728 280.13C205.036 276.746 204.19 272.767 204.19 268.192V237.548H220.17V266.03C220.17 269.539 221.079 272.265 222.896 274.208C224.713 276.151 227.157 277.122 230.228 277.122C233.361 277.122 235.837 276.151 237.654 274.208C239.471 272.265 240.38 269.539 240.38 266.03V237.548H256.454ZM284.074 246.29C285.954 243.407 288.304 241.151 291.124 239.522C293.944 237.83 297.077 236.984 300.524 236.984V253.998H296.106C292.095 253.998 289.087 254.875 287.082 256.63C285.077 258.322 284.074 261.33 284.074 265.654V290H268V237.548H284.074V246.29ZM329.545 290.752C324.97 290.752 320.897 289.969 317.325 288.402C313.753 286.835 310.933 284.705 308.865 282.01C306.797 279.253 305.638 276.182 305.387 272.798H321.273C321.461 274.615 322.307 276.088 323.811 277.216C325.315 278.344 327.164 278.908 329.357 278.908C331.362 278.908 332.898 278.532 333.963 277.78C335.091 276.965 335.655 275.931 335.655 274.678C335.655 273.174 334.872 272.077 333.305 271.388C331.738 270.636 329.2 269.821 325.691 268.944C321.931 268.067 318.798 267.158 316.291 266.218C313.784 265.215 311.622 263.68 309.805 261.612C307.988 259.481 307.079 256.63 307.079 253.058C307.079 250.05 307.894 247.324 309.523 244.88C311.215 242.373 313.659 240.399 316.855 238.958C320.114 237.517 323.968 236.796 328.417 236.796C334.997 236.796 340.167 238.425 343.927 241.684C347.75 244.943 349.943 249.267 350.507 254.656H335.655C335.404 252.839 334.59 251.397 333.211 250.332C331.895 249.267 330.14 248.734 327.947 248.734C326.067 248.734 324.626 249.11 323.623 249.862C322.62 250.551 322.119 251.523 322.119 252.776C322.119 254.28 322.902 255.408 324.469 256.16C326.098 256.912 328.605 257.664 331.989 258.416C335.874 259.419 339.039 260.421 341.483 261.424C343.927 262.364 346.058 263.931 347.875 266.124C349.755 268.255 350.726 271.137 350.789 274.772C350.789 277.843 349.912 280.6 348.157 283.044C346.465 285.425 343.99 287.305 340.731 288.684C337.535 290.063 333.806 290.752 329.545 290.752Z" fill="white"/>
</svg>
